<?xml version="1.0" encoding="utf-8"?>
<!-- Generator: Adobe Illustrator 27.8.1, SVG Export Plug-In . SVG Version: 6.00 Build 0)  -->
<svg version="1.1" id="Layer_1" xmlns="http://www.w3.org/2000/svg" xmlns:xlink="http://www.w3.org/1999/xlink" x="0px" y="0px"
	 viewBox="0 0 200 200" style="enable-background:new 0 0 200 200;" xml:space="preserve">
<g>
	<path d="M154.7,90.8c-0.2,3.2-0.2,5.8,3.7,7.3c3.8,1.4,3.8,5,2.9,8.7c-1,4.2-1.5,8.6-2.4,12.9c-1.4,6.5-1.8,13.5-8.4,17.6
		c-0.8,0.5-1.1,2-1.2,3.1c-0.7,6.8-3.5,12.7-7.6,18.1c-9.7,12.9-14,24-27.3,26.8c-9.7,2.1-19.3,2-29,0.1
		c-13.5-2.7-21.2-18.5-27.9-27.4c-3.9-5.2-6.4-10.9-7.1-17.4c-0.1-1.1-0.3-2.7-1.1-3.2c-6.5-3.9-6.9-10.8-8.5-17.1
		c-1.1-4.5-1.6-9.2-2.5-13.8c-0.7-3.5-0.7-7,2.9-8.3c4.6-1.7,3.9-5,3.8-8.6C44.7,79,43.9,74.4,44,63.8
		c0.3-60.9,115.2-60.3,112.2,3.4C156.1,70,155.2,83.7,154.7,90.8z M124.9,155.7c12.5-9.7,17.5-22.6,16.8-38.2
		c-0.3,0.2-0.8,0.3-1,0.6c-7,10.5-27,9.8-33.9-4.6c-1.4-3-1.9-6.5-3.2-9.6c-0.8-1.9-2.4-3.5-3.7-5.2c-1.2,1.6-2.6,3.1-3.5,4.8
		c-0.6,1.3-0.4,2.9-0.9,4.3c-2.5,8.1-7.2,14.3-15.8,16.4c-8.2,2-15.5,0.3-21-6.7c-0.1-0.2-0.5-0.1-1.1-0.2
		c0.9,6.3,1.7,12.6,2.8,18.8c0.3,1.8,1,3.8,2.2,5.2c5.1,6.1,10.1,12.3,15.7,18c5.2,5.4,6.7,5.4,11.9-0.2c5.9-6.3,13.7-6.1,19.2-0.1
		c5.4,5.8,6.9,5.5,12.7-0.1c1.1-1.1,1.9-2.5,2.9-3.7L124.9,155.7z M52.8,90.7c0.6,0.2,1.3,0.5,1.9,0.8c1.2-1.1,2.6-2,3.7-3.2
		c5.2-6,11.6-8.7,19.3-6.4c4.2,1.2,8.1,3.3,12.1,5.2c3.9,1.8,2.9,3.5,2.7,5.2c5.1,0,10,0,14,0c2-3.9,2.1-5,8.2-7.8
		c9.5-4.4,19.2-5.8,27.7,4.9c0.7,0.9,2.2,1.3,4.7,2.7c0.6-13.3,1.7-17.3,1.4-29.3c-0.3-11.2-11.6-20.1-22.8-19
		c-36.6,3.7-25.2,2.8-51.8,0c-10.8-1.2-22.2,8.1-22.3,19C51.3,74.7,52.3,78.7,52.8,90.7z M66.2,93.6c-5.7,1.1-7.7,3.8-8,10.1
		c-0.3,8.7,4.4,16.1,11.4,17.8c7.9,1.9,15.9-1.5,19.5-8.5c3.3-6.3,3.1-12.9-1-16.2C85.6,94.9,77.5,90.5,66.2,93.6z M110.3,96.9
		c-0.5,1.3-1.2,2.5-1.5,3.9c-1.5,6.9,2.1,15.2,8,18.8c6.2,3.7,14.2,3.3,19.1-1c5.2-4.5,7.4-13.9,4.8-20.4c-1.2-2.9-5.3-5.3-9.8-6
		C120.4,90.8,115.6,92.2,110.3,96.9z M48.5,132.8c0.4-0.1,0.7-0.2,1.1-0.2c0-6.3,0.3-12.6-0.1-18.8c-0.3-5.2-3.7-9.1-7.2-9.5
		c0.7,6.1,1.2,12.3,2.4,18.4C45.4,126.1,47.2,129.4,48.5,132.8z M150.9,132.3c0.6,0.1,1.1,0.2,1.6,0.3c1.9-9.6,3.9-19.1,5.9-28.9
		C148.8,106,150,116.8,150.9,132.3z M115.6,96.9"/>
	<path d="M119.6,152.7c-2.5-6-6.4-7.7-12.9-6.8c-4.3,0.6-8.8,0.6-13.1,0.1c-6.9-1-10.1,0.5-13.2,6.9c-0.7,1.4-5.5,0.7-5.8-0.7
		c-1.7-10.5,0.8-13.9,12.6-17.2c0.9-4,0.8-6.9,4-9.1c-0.1,2.2-0.1,3-0.9,6.9c6.4,0,12.3,0,19.1,0c-0.5-2.4-1-4.5-1.4-6.6
		c4.2,0.4,4.9,8.9,5.1,9C131.2,139.7,125.2,156.9,119.6,152.7z"/>
</g>
</svg>
